<?xml version="1.0" encoding="UTF-8" standalone="no"?>
<!DOCTYPE svg PUBLIC "-//W3C//DTD SVG 1.1//EN" "http://www.w3.org/Graphics/SVG/1.1/DTD/svg11.dtd">
<svg width="100%" height="100%" viewBox="0 0 1024 1024" version="1.1" xmlns="http://www.w3.org/2000/svg" xmlns:xlink="http://www.w3.org/1999/xlink" xml:space="preserve" xmlns:serif="http://www.serif.com/" style="fill-rule:evenodd;clip-rule:evenodd;stroke-linejoin:round;stroke-miterlimit:2;">
    <g id="Eyes">
        <g id="Tears2">
            <circle cx="302.869" cy="387.727" r="74.237"/>
            <g transform="matrix(-1,0,0,1,1024,-5.68434e-14)">
                <circle cx="302.869" cy="387.727" r="74.237"/>
            </g>
            <g transform="matrix(-5.67483e-17,0.926771,0.825234,5.0531e-17,406.858,293.75)">
                <path d="M302.869,363.868C302.869,354.507 296.102,346.907 287.766,346.907L116.506,346.907C108.17,346.907 101.403,354.507 101.403,363.868L101.403,397.789C101.403,407.15 108.17,414.75 116.506,414.75L287.766,414.75C296.102,414.75 302.869,407.15 302.869,397.789L302.869,363.868Z"/>
            </g>
            <g transform="matrix(-5.67483e-17,0.926771,0.825234,5.0531e-17,-11.4035,293.75)">
                <path d="M302.869,363.868C302.869,354.507 296.102,346.907 287.766,346.907L116.506,346.907C108.17,346.907 101.403,354.507 101.403,363.868L101.403,397.789C101.403,407.15 108.17,414.75 116.506,414.75L287.766,414.75C296.102,414.75 302.869,407.15 302.869,397.789L302.869,363.868Z"/>
            </g>
        </g>
    </g>
    <g id="Eyebrows">
    </g>
    <g id="Nose">
    </g>
    <g id="HeadAccessories">
    </g>
    <g id="Spacers">
    </g>
</svg>
