<?xml version="1.0" encoding="UTF-8" standalone="no"?>
<!DOCTYPE svg PUBLIC "-//W3C//DTD SVG 1.1//EN" "http://www.w3.org/Graphics/SVG/1.1/DTD/svg11.dtd">
<svg width="100%" height="100%" viewBox="0 0 1024 1024" version="1.1" xmlns="http://www.w3.org/2000/svg" xmlns:xlink="http://www.w3.org/1999/xlink" xml:space="preserve" xmlns:serif="http://www.serif.com/" style="fill-rule:evenodd;clip-rule:evenodd;stroke-linecap:round;stroke-linejoin:round;stroke-miterlimit:1.5;">
    <g id="Mouth">
        <g id="SneerTongue">
            <g id="Sneer" transform="matrix(1,0,0,1,-39.3028,0)">
                <path d="M551.303,753.367C672.967,753.367 771.743,766.594 771.743,809.609C771.743,852.624 672.967,887.547 551.303,887.547C429.639,887.547 330.863,852.624 330.863,809.609C330.863,781.758 354.474,720.621 416.692,706.837C450.569,699.332 508.412,753.367 551.303,753.367Z" style="fill:none;stroke:rgb(190,63,45);stroke-width:15px;"/>
            </g>
            <g transform="matrix(1,0,0,1,-3.12962,551.57)">
                <path d="M581.68,287.306C581.68,268.941 566.77,254.031 548.405,254.031L481.854,254.031C463.489,254.031 448.579,268.941 448.579,287.306L448.579,384.646C448.579,403.011 463.489,417.922 481.854,417.922L548.405,417.922C566.77,417.922 581.68,403.011 581.68,384.646L581.68,287.306Z" style="fill:rgb(190,63,45);"/>
            </g>
            <g transform="matrix(1,0,0,1,0,12.9896)">
                <path d="M512,805.601L512,907.07" style="fill:none;stroke:rgb(203,124,112);stroke-width:6.5px;"/>
            </g>
        </g>
    </g>
    <g id="Eyes">
    </g>
    <g id="Eyebrows">
    </g>
    <g id="Nose">
    </g>
    <g id="HeadAccessories">
    </g>
    <g id="Spacers">
    </g>
</svg>
