<?xml version="1.0" encoding="UTF-8" standalone="no"?>
<!DOCTYPE svg PUBLIC "-//W3C//DTD SVG 1.1//EN" "http://www.w3.org/Graphics/SVG/1.1/DTD/svg11.dtd">
<svg width="100%" height="100%" viewBox="0 0 1024 1024" version="1.1" xmlns="http://www.w3.org/2000/svg" xmlns:xlink="http://www.w3.org/1999/xlink" xml:space="preserve" xmlns:serif="http://www.serif.com/" style="fill-rule:evenodd;clip-rule:evenodd;stroke-linecap:round;stroke-linejoin:round;stroke-miterlimit:1.5;">
    <g id="Cloaks">
    </g>
    <g id="Hats">
    </g>
    <g transform="matrix(1,0,0,1,163.244,46.5231)">
        <g id="Ribbon">
            <g id="Belladonna">
                <path d="M340.548,270.888C341.371,269.246 342.46,267.748 343.856,266.459C357.591,253.777 363.826,237.821 363.826,237.821C363.826,237.821 364.311,253.945 369.186,272.321C370.957,278.992 368.765,285.923 365.124,291.561C370.659,292.326 375.827,294.607 378.888,299.136C389.356,314.625 404.191,323.192 404.191,323.192C404.191,323.192 388.178,321.243 369.277,323.295C363.596,323.912 358.149,321.818 353.589,318.553C353.768,325.169 352.023,331.839 346.959,335.817C332.257,347.363 324.769,362.772 324.769,362.772C324.769,362.772 325.571,346.661 322.176,327.955C321.483,324.133 322.046,320.329 323.398,316.785C317.748,316.449 312.346,314.548 308.93,310.199C297.383,295.496 281.975,288.009 281.975,288.009C281.975,288.009 297.974,288.805 316.594,285.452C316.494,284.396 316.502,283.325 316.632,282.241C318.864,263.68 313.263,247.49 313.263,247.49C313.263,247.49 324.088,259.449 339.716,270.276C340,270.473 340.277,270.676 340.548,270.888Z" style="fill:rgb(67,109,57);stroke:black;stroke-width:5.5px;"/>
                <g transform="matrix(0.323492,-0.167674,0.167674,0.323492,184.911,161.833)">
                    <circle cx="213.168" cy="537.637" r="46.913" style="fill:rgb(49,40,55);stroke:black;stroke-width:15.09px;"/>
                </g>
            </g>
        </g>
    </g>
    <g id="Hair">
    </g>
    <g id="Nose">
    </g>
    <g id="CloakIcons">
    </g>
    <g id="Eyes">
    </g>
    <g id="Broombase">
    </g>
</svg>
