<?xml version="1.0" encoding="UTF-8" standalone="no"?>
<!DOCTYPE svg PUBLIC "-//W3C//DTD SVG 1.1//EN" "http://www.w3.org/Graphics/SVG/1.1/DTD/svg11.dtd">
<svg width="100%" height="100%" viewBox="0 0 1024 1024" version="1.1" xmlns="http://www.w3.org/2000/svg" xmlns:xlink="http://www.w3.org/1999/xlink" xml:space="preserve" xmlns:serif="http://www.serif.com/" style="fill-rule:evenodd;clip-rule:evenodd;stroke-linecap:round;stroke-linejoin:round;stroke-miterlimit:1.5;">
    <g id="Cloaks">
    </g>
    <g id="Hats">
    </g>
    <g transform="matrix(1,0,0,1,95.7405,27.7846)">
        <g id="Ribbon">
            <g id="Henbane">
                <g transform="matrix(0.291598,0,0,0.291598,260.844,162.982)">
                    <path d="M415.236,412.658L415.236,372.222C415.236,338.17 442.882,310.523 476.935,310.523L502.859,310.523C536.912,310.523 564.558,338.17 564.558,372.222L564.558,411.996L602.585,401.806C635.478,392.993 669.337,412.542 678.151,445.434L684.861,470.475C693.674,503.368 674.125,537.227 641.233,546.041L631.758,548.58L640.476,557.297C664.554,581.376 664.554,620.474 640.476,644.552L622.144,662.884C598.065,686.963 558.967,686.963 534.889,662.884L500.41,628.405L455.964,672.851C431.885,696.93 392.787,696.93 368.708,672.851L350.377,654.52C326.298,630.441 326.298,591.343 350.377,567.264L364.095,553.545L336.088,546.041C303.196,537.227 283.647,503.368 292.46,470.475L299.17,445.434C307.984,412.542 341.843,392.993 374.736,401.806L415.236,412.658Z" style="fill:rgb(249,246,189);stroke:black;stroke-width:12px;"/>
                </g>
                <g transform="matrix(0.291598,0,0,0.291598,260.844,162.982)">
                    <path d="M455.964,561.188L398.998,628.405" style="fill:none;stroke:rgb(45,25,72);stroke-width:6.86px;"/>
                </g>
                <g transform="matrix(0.291598,0,0,0.291598,260.844,162.982)">
                    <path d="M437.372,500.717L332.782,462.812" style="fill:none;stroke:rgb(45,25,72);stroke-width:6.86px;"/>
                </g>
                <g transform="matrix(0.291598,0,0,0.291598,260.844,162.982)">
                    <path d="M488.66,462.812L488.66,354.971" style="fill:none;stroke:rgb(45,25,72);stroke-width:6.86px;"/>
                </g>
                <g transform="matrix(0.291598,0,0,0.291598,260.844,162.982)">
                    <path d="M539.949,500.717L640.585,472.989" style="fill:none;stroke:rgb(45,25,72);stroke-width:6.86px;"/>
                </g>
                <g transform="matrix(0.291598,0,0,0.291598,260.844,162.982)">
                    <path d="M526.203,549.468L602.263,628.405" style="fill:none;stroke:rgb(45,25,72);stroke-width:6.86px;"/>
                </g>
                <g transform="matrix(0.0754131,0,0,0.0754131,366.485,274.519)">
                    <path d="M415.236,412.658L415.236,372.222C415.236,338.17 442.882,310.523 476.935,310.523L502.859,310.523C536.912,310.523 564.558,338.17 564.558,372.222L564.558,411.996L602.585,401.806C635.478,392.993 669.337,412.542 678.151,445.434L684.861,470.475C693.674,503.368 674.125,537.227 641.233,546.041L631.758,548.58L640.476,557.297C664.554,581.376 664.554,620.474 640.476,644.552L622.144,662.884C598.065,686.963 558.967,686.963 534.889,662.884L500.41,628.405L455.964,672.851C431.885,696.93 392.787,696.93 368.708,672.851L350.377,654.52C326.298,630.441 326.298,591.343 350.377,567.264L364.095,553.545L336.088,546.041C303.196,537.227 283.647,503.368 292.46,470.475L299.17,445.434C307.984,412.542 341.843,392.993 374.736,401.806L415.236,412.658Z" style="fill:rgb(81,26,152);"/>
                </g>
                <g transform="matrix(0.0463561,0,0,0.0463561,380.684,290.027)">
                    <path d="M415.236,412.658L415.236,372.222C415.236,338.17 442.882,310.523 476.935,310.523L502.859,310.523C536.912,310.523 564.558,338.17 564.558,372.222L564.558,411.996L602.585,401.806C635.478,392.993 669.337,412.542 678.151,445.434L684.861,470.475C693.674,503.368 674.125,537.227 641.233,546.041L631.758,548.58L640.476,557.297C664.554,581.376 664.554,620.474 640.476,644.552L622.144,662.884C598.065,686.963 558.967,686.963 534.889,662.884L500.41,628.405L455.964,672.851C431.885,696.93 392.787,696.93 368.708,672.851L350.377,654.52C326.298,630.441 326.298,591.343 350.377,567.264L364.095,553.545L336.088,546.041C303.196,537.227 283.647,503.368 292.46,470.475L299.17,445.434C307.984,412.542 341.843,392.993 374.736,401.806L415.236,412.658Z" style="fill:rgb(45,25,72);"/>
                </g>
            </g>
        </g>
    </g>
    <g id="Hair">
    </g>
    <g id="Nose">
    </g>
    <g id="CloakIcons">
    </g>
    <g id="Eyes">
    </g>
    <g id="Broombase">
    </g>
</svg>
