<?xml version="1.0" encoding="UTF-8" standalone="no"?>
<!DOCTYPE svg PUBLIC "-//W3C//DTD SVG 1.1//EN" "http://www.w3.org/Graphics/SVG/1.1/DTD/svg11.dtd">
<svg width="100%" height="100%" viewBox="0 0 1024 1024" version="1.1" xmlns="http://www.w3.org/2000/svg" xmlns:xlink="http://www.w3.org/1999/xlink" xml:space="preserve" xmlns:serif="http://www.serif.com/" style="fill-rule:evenodd;clip-rule:evenodd;stroke-linecap:round;stroke-linejoin:round;stroke-miterlimit:1.5;">
    <g id="Cloaks">
    </g>
    <g id="Hats">
    </g>
    <g transform="matrix(1,0,0,1,47.2904,-12.9998)">
        <g id="Ribbon">
            <g id="LilyOfTheValley">
                <g transform="matrix(0.185187,-0.0618848,0.0618848,0.185187,340.12,243.666)">
                    <path d="M512,846.308C520.189,338.514 461.323,3.566 179.969,242.128" style="fill:none;stroke:black;stroke-width:61.46px;"/>
                </g>
                <g transform="matrix(0.185187,-0.0618848,0.0618848,0.185187,340.12,243.666)">
                    <path d="M512,846.308C520.189,338.514 461.323,3.566 179.969,242.128" style="fill:none;stroke:rgb(37,172,58);stroke-width:17.93px;"/>
                </g>
                <g transform="matrix(0.0825005,0.00227312,-0.00238582,0.0865906,348.953,200.343)">
                    <path d="M844.004,586.383C919.408,586.383 938.723,660.651 938.723,716.574L938.723,777.94L905.503,736.256L884.674,777.94L860.651,736.256L825.269,777.94L795.16,716.574L749.285,777.94L749.285,716.574C749.285,660.651 768.6,586.383 844.004,586.383Z" style="fill:white;stroke:black;stroke-width:35.46px;"/>
                </g>
                <g transform="matrix(0.0958605,0.00494351,-0.00489122,0.0948466,368.213,226.007)">
                    <path d="M844.004,586.383C919.408,586.383 938.723,660.651 938.723,716.574L938.723,777.94L905.503,736.256L884.674,777.94L860.651,736.256L825.269,777.94L795.16,716.574L749.285,777.94L749.285,716.574C749.285,660.651 768.6,586.383 844.004,586.383Z" style="fill:white;stroke:black;stroke-width:31.42px;"/>
                </g>
                <g transform="matrix(0.0672416,-0.00151828,0.00192045,0.085053,362.921,226.946)">
                    <path d="M844.004,586.383C919.408,586.383 938.723,660.651 938.723,716.574L938.723,777.94L905.503,736.256L884.674,777.94L860.651,736.256L825.269,777.94L795.16,716.574L749.285,777.94L749.285,716.574C749.285,660.651 768.6,586.383 844.004,586.383Z" style="fill:white;stroke:black;stroke-width:39.12px;"/>
                </g>
                <g transform="matrix(-0.108609,-0.00124294,-0.00124294,0.108609,569.301,278.256)">
                    <path d="M844.004,586.383C919.408,586.383 938.723,660.651 938.723,716.574L938.723,777.94L905.503,736.256L884.674,777.94L860.651,736.256L825.269,777.94L795.16,716.574L749.285,777.94L749.285,716.574C749.285,660.651 768.6,586.383 844.004,586.383Z" style="fill:white;stroke:black;stroke-width:27.62px;"/>
                </g>
                <g transform="matrix(-0.0968927,-0.00315646,-0.00357473,0.109732,544.966,249.428)">
                    <path d="M844.004,586.383C919.408,586.383 938.723,660.651 938.723,716.574L938.723,777.94L905.503,736.256L884.674,777.94L860.651,736.256L825.269,777.94L795.16,716.574L749.285,777.94L749.285,716.574C749.285,660.651 768.6,586.383 844.004,586.383Z" style="fill:white;stroke:black;stroke-width:28.97px;"/>
                </g>
                <g transform="matrix(-0.0684316,-0.000937986,-0.00119233,0.0869874,501.401,211.22)">
                    <path d="M844.004,586.383C919.408,586.383 938.723,660.651 938.723,716.574L938.723,777.94L905.503,736.256L884.674,777.94L860.651,736.256L825.269,777.94L795.16,716.574L749.285,777.94L749.285,716.574C749.285,660.651 768.6,586.383 844.004,586.383Z" style="fill:white;stroke:black;stroke-width:38.33px;"/>
                </g>
                <g transform="matrix(0.0346294,0.0473254,-0.0745776,0.0545707,402.201,205.182)">
                    <path d="M844.004,586.383C919.408,586.383 938.723,660.651 938.723,716.574L938.723,777.94L905.503,736.256L884.674,777.94L860.651,736.256L825.269,777.94L795.16,716.574L749.285,777.94L749.285,716.574C749.285,660.651 768.6,586.383 844.004,586.383Z" style="fill:white;stroke:black;stroke-width:38.76px;"/>
                </g>
            </g>
        </g>
    </g>
    <g id="Hair">
    </g>
    <g id="Nose">
    </g>
    <g id="CloakIcons">
    </g>
    <g id="Eyes">
    </g>
    <g id="Broombase">
    </g>
</svg>
