<?xml version="1.0" encoding="UTF-8" standalone="no"?>
<!DOCTYPE svg PUBLIC "-//W3C//DTD SVG 1.1//EN" "http://www.w3.org/Graphics/SVG/1.1/DTD/svg11.dtd">
<svg width="100%" height="100%" viewBox="0 0 1024 1024" version="1.1" xmlns="http://www.w3.org/2000/svg" xmlns:xlink="http://www.w3.org/1999/xlink" xml:space="preserve" xmlns:serif="http://www.serif.com/" style="fill-rule:evenodd;clip-rule:evenodd;stroke-linecap:round;stroke-linejoin:round;stroke-miterlimit:1.5;">
    <g id="Cloaks">
    </g>
    <g id="Hats">
    </g>
    <g transform="matrix(0.79938,-0.600825,0.600825,0.79938,48.2528,224.43)">
        <g id="Ribbon">
            <g id="Mandrake">
                <g transform="matrix(0.157733,0,0,0.159523,235.963,259.972)">
                    <path d="M444.63,250.484C578.595,251.238 499.545,317.605 512,412.649C512.258,414.614 526.022,426.269 542.673,440.008C568.4,461.235 592.566,643.536 592.908,646.663C595.084,666.595 517.505,468.818 518.524,490.564C520.019,522.476 520.47,555.984 520.47,590.043C520.47,666.247 547.541,692.713 520.47,747.802C502.778,783.803 477.185,984.054 477.185,984.054C477.185,984.054 454.339,910.225 427.755,837.513C424.971,829.898 384.964,875.706 384.964,875.706C384.964,875.706 413.255,799.002 410.225,791.376C389.622,739.51 413.632,697.481 401.674,697.481C363.933,697.481 340.606,1007.69 340.606,1007.69C340.606,1007.69 320.98,819.65 307.086,791.376C280.015,736.287 248.901,647.815 248.901,571.611C248.901,533.618 256.88,538.897 264.277,505.057C266.025,497.058 147.669,667.843 149.785,660.152C151.406,654.259 206.232,462.833 239.231,440.008C258.223,426.871 273.441,415.86 274.559,412.649C308.281,315.812 291.351,249.622 444.63,250.484Z" style="fill:rgb(178,140,104);stroke:black;stroke-width:18.91px;"/>
                </g>
                <g transform="matrix(0.140801,-0.0719039,0.0710969,0.142399,240.399,271.566)">
                    <path d="M245.662,78.717C245.662,78.717 302.686,163.103 302.686,239.766C302.686,316.429 277.135,378.67 245.662,378.67C214.19,378.67 188.638,316.429 188.638,239.766C188.638,163.103 245.662,78.717 245.662,78.717Z" style="fill:rgb(103,148,72);stroke:black;stroke-width:19px;"/>
                </g>
                <g transform="matrix(0.151345,0.0449387,-0.0444343,0.153063,278.621,239.092)">
                    <path d="M245.662,78.717C245.662,78.717 302.686,163.103 302.686,239.766C302.686,316.429 277.135,378.67 245.662,378.67C214.19,378.67 188.638,316.429 188.638,239.766C188.638,163.103 245.662,78.717 245.662,78.717Z" style="fill:rgb(103,148,72);stroke:black;stroke-width:18.85px;"/>
                </g>
                <g transform="matrix(0.11627,0.0882423,-0.0802293,0.108126,305.681,244.802)">
                    <path d="M245.662,78.717C245.662,78.717 302.686,163.103 302.686,239.766C302.686,316.429 277.135,378.67 245.662,378.67C214.19,378.67 188.638,316.429 188.638,239.766C188.638,163.103 245.662,78.717 245.662,78.717Z" style="fill:rgb(103,148,72);stroke:black;stroke-width:21.25px;"/>
                </g>
                <g transform="matrix(0.157733,0,0,0.159523,235.963,259.972)">
                    <path d="M267.156,675.064C296.395,680.7 316.115,674.907 328.221,659.975" style="fill:none;stroke:black;stroke-width:18.91px;"/>
                </g>
                <g transform="matrix(0.157733,0,0,0.159523,235.963,259.972)">
                    <path d="M531.229,677.184C512.071,687.173 493.12,686.961 474.362,677.184" style="fill:none;stroke:black;stroke-width:18.91px;"/>
                </g>
                <g transform="matrix(0.157733,0,0,0.159523,235.963,259.972)">
                    <path d="M521.039,629.084C506.33,641.61 497.721,639.14 492.198,629.084" style="fill:none;stroke:black;stroke-width:18.91px;"/>
                </g>
                <g transform="matrix(0.157733,0,0,0.159523,235.963,259.972)">
                    <path d="M267.156,512C286.905,522.405 307.256,522.487 328.221,512" style="fill:none;stroke:black;stroke-width:18.91px;"/>
                </g>
            </g>
        </g>
    </g>
    <g id="Hair">
    </g>
    <g id="Nose">
    </g>
    <g id="CloakIcons">
    </g>
    <g id="Eyes">
    </g>
    <g id="Broombase">
    </g>
</svg>
