<?xml version="1.0" encoding="UTF-8" standalone="no"?>
<!DOCTYPE svg PUBLIC "-//W3C//DTD SVG 1.1//EN" "http://www.w3.org/Graphics/SVG/1.1/DTD/svg11.dtd">
<svg width="100%" height="100%" viewBox="0 0 1024 1024" version="1.1" xmlns="http://www.w3.org/2000/svg" xmlns:xlink="http://www.w3.org/1999/xlink" xml:space="preserve" xmlns:serif="http://www.serif.com/" style="fill-rule:evenodd;clip-rule:evenodd;stroke-linecap:round;stroke-linejoin:round;stroke-miterlimit:1.5;">
    <g id="Cloaks">
    </g>
    <g id="Hats">
    </g>
    <g id="Ribbon">
        <g id="Mistletoe">
            <g transform="matrix(0.215736,0.119372,0.129828,-0.234633,337.822,420.186)">
                <path d="M227.056,405.404C227.056,405.404 252.174,430.467 281.554,433.131C297.581,434.584 329.025,414.927 329.025,414.927C329.025,414.927 366.085,451.042 385.624,460.043C419.575,475.684 454.112,494.887 454.112,494.887C454.112,494.887 417.39,512.019 381.32,527.863C363.548,535.669 333.43,573.948 333.43,573.948C333.43,573.948 297.099,553.961 279.851,555.576C249.704,558.398 227.056,584.369 227.056,584.369C227.056,584.369 181.991,555.706 160.713,550.617C141.292,545.971 84.563,555.197 84.563,555.197C84.563,555.197 70.221,532.078 54.601,522.665C23.544,503.951 0,494.887 0,494.887C0,494.887 39.575,497.346 64.931,481.197C78.924,472.285 91.048,437.799 91.048,437.799C91.048,437.799 130.859,448.012 152.57,442.19C176.336,435.818 227.056,405.404 227.056,405.404Z" style="fill:rgb(46,125,7);stroke:black;stroke-width:25.23px;"/>
            </g>
            <g transform="matrix(-0.215736,0.119372,-0.129828,-0.234633,666.637,420.186)">
                <path d="M227.056,405.404C227.056,405.404 252.174,430.467 281.554,433.131C297.581,434.584 329.025,414.927 329.025,414.927C329.025,414.927 366.085,451.042 385.624,460.043C419.575,475.684 454.112,494.887 454.112,494.887C454.112,494.887 417.39,512.019 381.32,527.863C363.548,535.669 333.43,573.948 333.43,573.948C333.43,573.948 297.099,553.961 279.851,555.576C249.704,558.398 227.056,584.369 227.056,584.369C227.056,584.369 181.991,555.706 160.713,550.617C141.292,545.971 84.563,555.197 84.563,555.197C84.563,555.197 70.221,532.078 54.601,522.665C23.544,503.951 0,494.887 0,494.887C0,494.887 39.575,497.346 64.931,481.197C78.924,472.285 91.048,437.799 91.048,437.799C91.048,437.799 130.859,448.012 152.57,442.19C176.336,435.818 227.056,405.404 227.056,405.404Z" style="fill:rgb(46,125,7);stroke:black;stroke-width:25.23px;"/>
            </g>
            <g transform="matrix(0.246559,0,0,-0.246559,364.295,489.01)">
                <circle cx="459.648" cy="662.575" r="64.426" style="fill:rgb(210,70,44);stroke:black;stroke-width:26.36px;"/>
            </g>
            <g transform="matrix(0.246559,0,0,-0.246559,399.728,494.424)">
                <circle cx="459.648" cy="662.575" r="64.426" style="fill:rgb(210,70,44);stroke:black;stroke-width:26.36px;"/>
            </g>
            <g transform="matrix(0.246559,0,0,-0.246559,380.179,525.471)">
                <circle cx="459.648" cy="662.575" r="64.426" style="fill:rgb(210,70,44);stroke:black;stroke-width:26.36px;"/>
            </g>
        </g>
    </g>
    <g id="Hair">
    </g>
    <g id="Nose">
    </g>
    <g id="CloakIcons">
    </g>
    <g id="Eyes">
    </g>
    <g id="Broombase">
    </g>
</svg>
