<?xml version="1.0" encoding="UTF-8" standalone="no"?>
<!DOCTYPE svg PUBLIC "-//W3C//DTD SVG 1.1//EN" "http://www.w3.org/Graphics/SVG/1.1/DTD/svg11.dtd">
<svg width="100%" height="100%" viewBox="0 0 1024 1024" version="1.1" xmlns="http://www.w3.org/2000/svg" xmlns:xlink="http://www.w3.org/1999/xlink" xml:space="preserve" xmlns:serif="http://www.serif.com/" style="fill-rule:evenodd;clip-rule:evenodd;stroke-linecap:round;stroke-linejoin:round;stroke-miterlimit:1.5;">
    <g id="Cloaks">
    </g>
    <g id="Hats">
    </g>
    <g id="Ribbon">
    </g>
    <g id="Hair">
    </g>
    <g id="Nose">
    </g>
    <g id="CloakIcons">
    </g>
    <g id="Eyes">
    </g>
    <g transform="matrix(0.768399,-1.61454,1.61454,0.768399,-591.734,1256.64)">
        <g id="Broombase">
            <g id="Mushroom">
                <g transform="matrix(0.111858,-0.0981381,0.0981381,0.111858,366.168,325.752)">
                    <path d="M421.781,410.977C397.676,422.036 379.697,437.875 379.697,455.456L379.697,461.301C379.697,494.698 346.729,521.812 395.234,521.812L421.781,521.812L421.781,757.427C421.781,804.926 380.891,874.45 395.234,897.109C409.578,919.769 482.712,944.668 512,946.231C542.073,947.837 611.177,929.601 626.907,906.942C642.636,884.282 602.219,804.926 602.219,757.427L602.219,521.812L654.197,521.812C702.702,521.812 654.197,494.698 654.197,461.301L654.197,455.456C654.197,434.025 631.386,415.181 602.219,404.428L602.219,335.337C602.219,287.838 563.656,249.275 516.157,249.275L507.843,249.275C460.344,249.275 421.781,287.838 421.781,335.337L421.781,410.977Z" style="fill:rgb(215,215,215);stroke:black;stroke-width:18.79px;"/>
                </g>
                <g transform="matrix(0.111858,-0.0981381,0.0981381,0.111858,353.392,306.685)">
                    <path d="M502.284,254.268C692.798,254.268 847.472,389.735 847.472,457.779C847.472,525.823 692.798,512 502.284,512C311.769,512 157.095,525.823 157.095,457.779C157.095,389.735 311.769,254.268 502.284,254.268Z" style="fill:rgb(210,70,44);stroke:black;stroke-width:18.79px;"/>
                </g>
                <g transform="matrix(0.135956,-0.11928,0.0688942,0.078526,360.335,337.173)">
                    <ellipse cx="452.09" cy="199.121" rx="32.751" ry="30.155" style="fill:white;"/>
                </g>
                <g transform="matrix(0.0871296,-0.0764425,0.0481764,0.0549118,411.015,325.453)">
                    <ellipse cx="452.09" cy="199.121" rx="32.751" ry="30.155" style="fill:white;"/>
                </g>
                <g transform="matrix(0.0817501,-0.0717228,0.0804242,0.0916679,375.973,335.422)">
                    <ellipse cx="452.09" cy="199.121" rx="32.751" ry="30.155" style="fill:white;"/>
                </g>
                <g transform="matrix(0.135956,-0.11928,0.0688942,0.078526,383.265,321.246)">
                    <ellipse cx="452.09" cy="199.121" rx="32.751" ry="30.155" style="fill:white;"/>
                </g>
                <g transform="matrix(0.0420375,-0.116835,0.0623197,0.0224228,417.595,345.099)">
                    <ellipse cx="452.09" cy="199.121" rx="32.751" ry="30.155" style="fill:white;"/>
                </g>
                <g transform="matrix(0.0330475,-0.0545055,0.0290128,0.0175909,429.357,305.138)">
                    <ellipse cx="452.09" cy="199.121" rx="32.751" ry="30.155" style="fill:white;"/>
                </g>
                <g transform="matrix(0.0587457,0.0247373,-0.0131674,0.0312698,414.305,294.553)">
                    <ellipse cx="452.09" cy="199.121" rx="32.751" ry="30.155" style="fill:white;"/>
                </g>
                <g transform="matrix(0.0755352,-0.0662702,0.079096,0.0901541,425.393,297.097)">
                    <ellipse cx="452.09" cy="199.121" rx="32.751" ry="30.155" style="fill:white;"/>
                </g>
                <g transform="matrix(0.0630154,-0.0552861,0.0447108,0.0509616,408.379,328.555)">
                    <ellipse cx="452.09" cy="199.121" rx="32.751" ry="30.155" style="fill:white;"/>
                </g>
            </g>
        </g>
    </g>
</svg>
