<?xml version="1.0" encoding="UTF-8" standalone="no"?>
<!DOCTYPE svg PUBLIC "-//W3C//DTD SVG 1.1//EN" "http://www.w3.org/Graphics/SVG/1.1/DTD/svg11.dtd">
<svg width="100%" height="100%" viewBox="0 0 1024 1024" version="1.1" xmlns="http://www.w3.org/2000/svg" xmlns:xlink="http://www.w3.org/1999/xlink" xml:space="preserve" xmlns:serif="http://www.serif.com/" style="fill-rule:evenodd;clip-rule:evenodd;stroke-linecap:round;stroke-linejoin:round;stroke-miterlimit:1.5;">
    <g id="Cloaks">
    </g>
    <g id="Hats">
    </g>
    <g id="Ribbon">
    </g>
    <g id="Hair">
    </g>
    <g id="Nose">
    </g>
    <g id="CloakIcons">
    </g>
    <g id="Eyes">
    </g>
    <g id="Broombase">
        <g id="Normal">
            <g transform="matrix(0.975784,0.218735,-0.218735,0.975784,284.943,-101.386)">
                <path d="M228.618,787.543C228.618,787.543 176.023,762.457 150.948,767.172C73.605,781.715 40.875,865.033 45.046,874.428L86.942,850.757L55.408,891.67L109.59,873.72L89.166,901.816L140.244,884.51L101.004,928.092C101.004,928.092 182.09,903.834 214.505,873.72C237.629,852.237 243.956,814.7 243.956,814.7L254.113,810.936C277.513,812.863 280.739,802.869 269.222,781.976C258.34,762.234 249.938,763.288 236.486,781.377L228.618,787.543Z" style="fill:rgb(243,219,90);stroke:black;stroke-width:6px;"/>
            </g>
            <g transform="matrix(0.986255,0.165233,-0.165233,0.986255,228.578,-81.4758)">
                <path d="M211.494,825.16C199.436,843.109 183.802,856.01 162.942,861.535" style="fill:none;stroke:black;stroke-width:6px;"/>
            </g>
            <g transform="matrix(1,0,0,1,95.4835,-63.4394)">
                <path d="M228.039,790.609C172.656,761.501 130.029,764.642 97.368,792.972" style="fill:none;stroke:black;stroke-width:6px;"/>
            </g>
            <g transform="matrix(1,0,0,1,82.0129,-71.6521)">
                <path d="M216.137,805.486C180.98,800.756 150.004,804.666 126.925,824.891" style="fill:none;stroke:black;stroke-width:6px;"/>
            </g>
        </g>
    </g>
</svg>
