<?xml version="1.0" encoding="UTF-8" standalone="no"?>
<!DOCTYPE svg PUBLIC "-//W3C//DTD SVG 1.1//EN" "http://www.w3.org/Graphics/SVG/1.1/DTD/svg11.dtd">
<svg width="100%" height="100%" viewBox="0 0 1024 1024" version="1.1" xmlns="http://www.w3.org/2000/svg" xmlns:xlink="http://www.w3.org/1999/xlink" xml:space="preserve" xmlns:serif="http://www.serif.com/" style="fill-rule:evenodd;clip-rule:evenodd;stroke-linecap:round;stroke-linejoin:round;stroke-miterlimit:1.5;">
    <g id="Cloaks">
    </g>
    <g id="Hats">
    </g>
    <g id="Ribbon">
    </g>
    <g id="Hair">
    </g>
    <g id="Nose">
    </g>
    <g id="CloakIcons">
    </g>
    <g id="Eyes">
    </g>
    <g id="Broombase">
        <g>
            <g transform="matrix(1,0,0,1,171.719,39.8999)">
                <circle cx="107.323" cy="729.657" r="21.993" style="fill:rgb(55,85,45);stroke:rgb(55,85,45);stroke-width:5px;"/>
            </g>
            <g transform="matrix(0.762572,-0.396529,0.33226,0.638975,-113.139,312.098)">
                <g transform="matrix(1,0,0,1,-204.696,-129.233)">
                    <path d="M364.374,940.59L364.374,940.59C343.72,923.299 318.935,897.362 309.296,871.425C295.527,836.843 295.527,802.261 309.296,784.97C323.066,767.679 350.604,767.679 364.374,802.261L364.374,802.261L364.374,940.59Z" style="fill:rgb(126,166,87);stroke:rgb(59,87,51);stroke-width:6.31px;"/>
                </g>
                <g transform="matrix(-1,0,0,1,524.052,-129.233)">
                    <path d="M364.374,940.59L364.374,940.59C343.72,923.299 318.935,897.362 309.296,871.425C295.527,836.843 295.527,802.261 309.296,784.97C323.066,767.679 350.604,767.679 364.374,802.261L364.374,802.261L364.374,940.59Z" style="fill:rgb(115,169,97);stroke:rgb(59,87,51);stroke-width:6.31px;"/>
                </g>
                <path d="M126.976,703.176C149.893,693.351 171.774,694.31 192.38,703.176" style="fill:none;stroke:rgb(158,192,148);stroke-width:6.31px;"/>
            </g>
            <g transform="matrix(0.779127,-0.362922,-0.3041,-0.652847,405.403,1363.98)">
                <g transform="matrix(1,0,0,1,-204.696,-129.233)">
                    <path d="M364.374,940.59L364.374,940.59C343.72,923.299 318.935,897.362 309.296,871.425C295.527,836.843 295.527,802.261 309.296,784.97C323.066,767.679 350.604,767.679 364.374,802.261L364.374,802.261L364.374,940.59Z" style="fill:rgb(126,166,87);stroke:rgb(59,87,51);stroke-width:6.31px;"/>
                </g>
                <g transform="matrix(-1,0,0,1,524.052,-129.233)">
                    <path d="M364.374,940.59L364.374,940.59C343.72,923.299 318.935,897.362 309.296,871.425C295.527,836.843 295.527,802.261 309.296,784.97C323.066,767.679 350.604,767.679 364.374,802.261L364.374,802.261L364.374,940.59Z" style="fill:rgb(115,169,97);stroke:rgb(59,87,51);stroke-width:6.31px;"/>
                </g>
                <path d="M126.976,703.176C149.893,693.351 171.774,694.31 192.38,703.176" style="fill:none;stroke:rgb(158,192,148);stroke-width:6.31px;"/>
            </g>
            <g transform="matrix(-0.396529,-0.762572,0.638975,-0.33226,-176.078,1164.1)">
                <g transform="matrix(1,0,0,1,-204.696,-129.233)">
                    <path d="M364.374,940.59L364.374,940.59C343.72,923.299 318.935,897.362 309.296,871.425C295.527,836.843 295.527,802.261 309.296,784.97C323.066,767.679 350.604,767.679 364.374,802.261L364.374,802.261L364.374,940.59Z" style="fill:rgb(126,166,87);stroke:rgb(59,87,51);stroke-width:6.31px;"/>
                </g>
                <g transform="matrix(-1,0,0,1,524.052,-129.233)">
                    <path d="M364.374,940.59L364.374,940.59C343.72,923.299 318.935,897.362 309.296,871.425C295.527,836.843 295.527,802.261 309.296,784.97C323.066,767.679 350.604,767.679 364.374,802.261L364.374,802.261L364.374,940.59Z" style="fill:rgb(115,169,97);stroke:rgb(59,87,51);stroke-width:6.31px;"/>
                </g>
                <path d="M126.976,703.176C149.893,693.351 171.774,694.31 192.38,703.176" style="fill:none;stroke:rgb(158,192,148);stroke-width:6.31px;"/>
            </g>
            <g transform="matrix(-0.362922,-0.779127,-0.652847,0.3041,866.685,647.337)">
                <g transform="matrix(1,0,0,1,-204.696,-129.233)">
                    <path d="M364.374,940.59L364.374,940.59C343.72,923.299 318.935,897.362 309.296,871.425C295.527,836.843 295.527,802.261 309.296,784.97C323.066,767.679 350.604,767.679 364.374,802.261L364.374,802.261L364.374,940.59Z" style="fill:rgb(126,166,87);stroke:rgb(59,87,51);stroke-width:6.31px;"/>
                </g>
                <g transform="matrix(-1,0,0,1,524.052,-129.233)">
                    <path d="M364.374,940.59L364.374,940.59C343.72,923.299 318.935,897.362 309.296,871.425C295.527,836.843 295.527,802.261 309.296,784.97C323.066,767.679 350.604,767.679 364.374,802.261L364.374,802.261L364.374,940.59Z" style="fill:rgb(115,169,97);stroke:rgb(59,87,51);stroke-width:6.31px;"/>
                </g>
                <path d="M126.976,703.176C149.893,693.351 171.774,694.31 192.38,703.176" style="fill:none;stroke:rgb(158,192,148);stroke-width:6.31px;"/>
            </g>
        </g>
    </g>
</svg>
