<?xml version="1.0" encoding="UTF-8" standalone="no"?>
<!DOCTYPE svg PUBLIC "-//W3C//DTD SVG 1.1//EN" "http://www.w3.org/Graphics/SVG/1.1/DTD/svg11.dtd">
<svg width="100%" height="100%" viewBox="0 0 1024 1024" version="1.1" xmlns="http://www.w3.org/2000/svg" xmlns:xlink="http://www.w3.org/1999/xlink" xml:space="preserve" xmlns:serif="http://www.serif.com/" style="fill-rule:evenodd;clip-rule:evenodd;stroke-linecap:round;stroke-linejoin:round;stroke-miterlimit:1.5;">
    <g id="Cloaks">
    </g>
    <g id="Hats">
    </g>
    <g id="Ribbon">
    </g>
    <g id="Hair">
    </g>
    <g id="Nose">
    </g>
    <g id="CloakIcons">
    </g>
    <g id="Eyes">
        <g id="HappyClosed">
            <path d="M531.893,448.441C542.384,426.619 557.096,421.962 577.086,438.772" style="fill:none;stroke:rgb(11,10,0);stroke-width:5px;"/>
            <path d="M531.893,448.441C524.607,451.097 518.004,449.76 512,444.915" style="fill:none;stroke:rgb(11,10,0);stroke-width:5px;"/>
            <path d="M537.259,438.533C530.343,439.544 525.691,437.886 522.694,434.277" style="fill:none;stroke:rgb(11,10,0);stroke-width:5px;"/>
            <g transform="matrix(-0.960373,0.278718,0.278718,0.960373,1050.16,-150.102)">
                <path d="M531.893,448.441C542.384,426.619 557.096,421.962 577.086,438.772" style="fill:none;stroke:rgb(11,10,0);stroke-width:5px;"/>
            </g>
            <g transform="matrix(-0.960373,0.278718,0.278718,0.960373,1050.16,-150.102)">
                <path d="M531.893,448.441C524.607,451.097 518.004,449.76 512,444.915" style="fill:none;stroke:rgb(11,10,0);stroke-width:5px;"/>
            </g>
            <g transform="matrix(-0.960373,0.278718,0.278718,0.960373,1050.16,-150.102)">
                <path d="M537.259,438.533C530.343,439.544 525.691,437.886 522.694,434.277" style="fill:none;stroke:rgb(11,10,0);stroke-width:5px;"/>
            </g>
        </g>
    </g>
    <g id="Broombase">
    </g>
</svg>
