<?xml version="1.0" encoding="UTF-8" standalone="no"?>
<!DOCTYPE svg PUBLIC "-//W3C//DTD SVG 1.1//EN" "http://www.w3.org/Graphics/SVG/1.1/DTD/svg11.dtd">
<svg width="100%" height="100%" viewBox="0 0 1024 1024" version="1.1" xmlns="http://www.w3.org/2000/svg" xmlns:xlink="http://www.w3.org/1999/xlink" xml:space="preserve" xmlns:serif="http://www.serif.com/" style="fill-rule:evenodd;clip-rule:evenodd;stroke-linecap:round;stroke-linejoin:round;stroke-miterlimit:1.5;">
    <g id="Cloaks">
    </g>
    <g id="Hats">
    </g>
    <g id="Ribbon">
    </g>
    <g id="Hair">
    </g>
    <g id="Nose">
    </g>
    <g id="CloakIcons">
    </g>
    <g id="Eyes">
        <g id="Heart">
            <g transform="matrix(1.63831,-0.051988,0.051988,1.63831,-373.476,-261.431)">
                <path d="M554.415,441.135C557.471,435.799 563.584,435.799 566.64,438.467C569.697,441.135 569.697,446.471 566.64,451.807C564.501,455.81 558.999,459.812 554.415,462.48C549.83,459.812 544.329,455.81 542.189,451.807C539.133,446.471 539.133,441.135 542.189,438.467C545.245,435.799 551.358,435.799 554.415,441.135Z" style="fill:rgb(227,53,74);stroke:black;stroke-width:3.05px;"/>
            </g>
            <g transform="matrix(1.61753,-0.265218,0.265218,1.61753,-379.378,-153.108)">
                <path d="M554.415,441.135C557.471,435.799 563.584,435.799 566.64,438.467C569.697,441.135 569.697,446.471 566.64,451.807C564.501,455.81 558.999,459.812 554.415,462.48C549.83,459.812 544.329,455.81 542.189,451.807C539.133,446.471 539.133,441.135 542.189,438.467C545.245,435.799 551.358,435.799 554.415,441.135Z" style="fill:rgb(227,53,74);stroke:black;stroke-width:3.05px;"/>
            </g>
        </g>
    </g>
    <g id="Broombase">
    </g>
</svg>
