<?xml version="1.0" encoding="UTF-8" standalone="no"?>
<!DOCTYPE svg PUBLIC "-//W3C//DTD SVG 1.1//EN" "http://www.w3.org/Graphics/SVG/1.1/DTD/svg11.dtd">
<svg width="100%" height="100%" viewBox="0 0 1024 1024" version="1.1" xmlns="http://www.w3.org/2000/svg" xmlns:xlink="http://www.w3.org/1999/xlink" xml:space="preserve" xmlns:serif="http://www.serif.com/" style="fill-rule:evenodd;clip-rule:evenodd;stroke-linecap:round;stroke-linejoin:round;stroke-miterlimit:1.5;">
    <g id="Cloaks">
    </g>
    <g id="Hats">
    </g>
    <g id="Ribbon">
    </g>
    <g id="Hair">
        <g id="Braid">
            <path d="M495.639,437.435C495.973,436.391 485.664,433.251 470.28,433.831C463.062,434.102 455.521,437.511 445.987,438.098C438.729,438.545 430.466,436.188 422.237,436.803C414.404,437.389 406.643,440.941 398.216,441.669C390.875,442.304 383.462,440.933 375.868,441.669C370.75,442.165 365.494,444.741 360.331,445.28C353.34,446.01 346.334,442.922 339.383,443.727C332.023,444.579 324.724,449.328 317.569,450.258C309.776,451.271 302.154,449.16 294.81,450.258C283.179,451.996 272.245,457.005 262.434,458.931L251.119,458.931C232.306,447.643 217.333,453.842 204.875,471.497C216.136,485.354 231.534,488.655 252.538,477.651L262.434,476.602C273.158,476.567 283.957,480.352 294.81,480.063C303.816,479.824 312.858,475.552 321.923,475.128C329.344,474.782 336.676,478.126 344.12,477.651C350.783,477.226 357.556,472.997 364.228,472.466C370.721,471.949 378.284,473.086 384.775,472.466C391.563,471.818 397.277,469.408 404.051,468.644C412.276,467.715 421.753,469.749 429.941,468.644C437.534,467.618 443.841,463.467 451.386,462.284C459.367,461.034 468.655,463.717 476.564,462.284C484.892,460.776 491.837,455.142 500.063,453.426L495.639,437.435Z" style="fill:rgb(255,140,0);stroke:rgb(11,10,0);stroke-width:5px;"/>
            <path d="M251.978,458.996L252.121,476.602L262.765,476.602L262.765,458.996L251.978,458.996Z" style="fill:rgb(255,0,5);stroke:rgb(11,10,0);stroke-width:5px;"/>
            <path d="M282.567,454.744L314.4,476.602L321.332,450.81L357.382,471.888L361.747,445.008L401.416,467.799L401.416,440.81L447.463,462.007L447.463,437.435L495.639,450.81" style="fill:none;stroke:rgb(11,10,0);stroke-width:5px;"/>
        </g>
    </g>
    <g id="Nose">
    </g>
    <g id="CloakIcons">
    </g>
    <g id="Eyes">
    </g>
    <g id="Broombase">
    </g>
</svg>
