<?xml version="1.0" encoding="UTF-8" standalone="no"?>
<!DOCTYPE svg PUBLIC "-//W3C//DTD SVG 1.1//EN" "http://www.w3.org/Graphics/SVG/1.1/DTD/svg11.dtd">
<svg width="100%" height="100%" viewBox="0 0 1024 1024" version="1.1" xmlns="http://www.w3.org/2000/svg" xmlns:xlink="http://www.w3.org/1999/xlink" xml:space="preserve" xmlns:serif="http://www.serif.com/" style="fill-rule:evenodd;clip-rule:evenodd;stroke-linecap:round;stroke-linejoin:round;stroke-miterlimit:1.5;">
    <g id="Cloaks">
    </g>
    <g id="Hats">
    </g>
    <g id="Ribbon">
    </g>
    <g id="Hair">
        <g id="Blonde">
            <path d="M432.97,426.035C435.58,434.554 431.887,444.846 423.286,456.518C425.492,462.561 423.74,469.29 418.629,476.602C449.45,460.221 482.793,455.976 519.48,467.833C516.292,461.213 516.39,454.488 519.48,447.667C514.323,441.925 515.34,436.183 519.48,430.441C487.31,437.13 458.563,435.441 432.97,426.035Z" style="fill:rgb(255,230,79);fill-opacity:0.76;"/>
            <g transform="matrix(-0.654095,0.756412,-0.756412,-0.654095,1345.5,306.777)">
                <path d="M432.97,426.035C435.58,434.554 431.887,444.846 423.286,456.518C425.492,462.561 423.74,469.29 418.629,476.602C449.45,460.221 482.793,455.976 519.48,467.833C516.292,461.213 516.39,454.488 519.48,447.667C514.323,441.925 515.34,436.183 519.48,430.441C487.31,437.13 458.563,435.441 432.97,426.035Z" style="fill:rgb(255,230,79);fill-opacity:0.76;"/>
            </g>
            <g transform="matrix(1,0,0,1,95.4835,-63.4394)">
                <path d="M423.342,494.488C393.127,499.099 364.411,497.81 337.487,489.474" style="fill:none;stroke:black;stroke-width:6px;"/>
            </g>
            <g transform="matrix(1,0,0,1,95.4835,-63.4394)">
                <path d="M423.342,512C389.743,507.39 356.937,506.068 327.802,519.958" style="fill:none;stroke:black;stroke-width:6px;"/>
            </g>
            <g transform="matrix(1,0,0,1,95.4835,-63.4394)">
                <path d="M423.342,530.88C391.715,521.18 358.791,520.815 323.145,540.041" style="fill:none;stroke:black;stroke-width:6px;"/>
            </g>
            <g transform="matrix(-0.637582,0.770382,-0.770382,-0.637582,1332.3,407.311)">
                <path d="M423.342,494.488C393.127,499.099 364.411,497.81 337.487,489.474" style="fill:none;stroke:black;stroke-width:6px;"/>
            </g>
            <g transform="matrix(-0.637582,0.770382,-0.770382,-0.637582,1332.3,407.311)">
                <path d="M423.342,512C389.743,507.39 356.937,506.068 327.802,519.958" style="fill:none;stroke:black;stroke-width:6px;"/>
            </g>
            <g transform="matrix(-0.637582,0.770382,-0.770382,-0.637582,1332.3,407.311)">
                <path d="M423.342,530.88C391.715,521.18 358.791,520.815 323.145,540.041" style="fill:none;stroke:black;stroke-width:6px;"/>
            </g>
        </g>
    </g>
    <g id="Nose">
    </g>
    <g id="CloakIcons">
    </g>
    <g id="Eyes">
    </g>
    <g id="Broombase">
    </g>
</svg>
