<?xml version="1.0" encoding="UTF-8" standalone="no"?>
<!DOCTYPE svg PUBLIC "-//W3C//DTD SVG 1.1//EN" "http://www.w3.org/Graphics/SVG/1.1/DTD/svg11.dtd">
<svg width="100%" height="100%" viewBox="0 0 1024 1024" version="1.1" xmlns="http://www.w3.org/2000/svg" xmlns:xlink="http://www.w3.org/1999/xlink" xml:space="preserve" xmlns:serif="http://www.serif.com/" style="fill-rule:evenodd;clip-rule:evenodd;stroke-linecap:round;stroke-linejoin:round;stroke-miterlimit:1.5;">
    <g id="Cloaks">
    </g>
    <g id="Hats">
    </g>
    <g id="Ribbon">
    </g>
    <g id="Hair">
    </g>
    <g id="Nose">
    </g>
    <g id="CloakIcons">
        <g id="ThirdEye">
            <g>
                <g transform="matrix(0.607396,0,0,0.607396,185.178,247.866)">
                    <path d="M522.383,607.047C558.624,639.879 594.865,638.991 631.106,607.041C594.865,569.823 558.624,570.402 522.383,607.047Z" style="fill:none;stroke:white;stroke-width:8.23px;"/>
                </g>
                <g transform="matrix(0.607396,0,0,0.607396,184.862,247.529)">
                    <circle cx="577.266" cy="605.897" r="13.267" style="fill:white;stroke:white;stroke-width:8.23px;"/>
                </g>
            </g>
            <g>
                <g transform="matrix(0.607396,0,0,0.607396,272.93,247.866)">
                    <path d="M522.383,607.047C558.624,639.879 594.865,638.991 631.106,607.041C594.865,569.823 558.624,570.402 522.383,607.047Z" style="fill:none;stroke:white;stroke-width:8.23px;"/>
                </g>
                <g transform="matrix(0.607396,0,0,0.607396,272.613,247.529)">
                    <circle cx="577.266" cy="605.897" r="13.267" style="fill:white;stroke:white;stroke-width:8.23px;"/>
                </g>
            </g>
            <g>
                <g transform="matrix(0.607396,0,0,0.607396,231.853,206.789)">
                    <path d="M522.383,607.047C558.624,639.879 594.865,638.991 631.106,607.041C594.865,569.823 558.624,570.402 522.383,607.047Z" style="fill:none;stroke:white;stroke-width:8.23px;"/>
                </g>
                <g transform="matrix(0.607396,0,0,0.607396,231.536,206.452)">
                    <circle cx="577.266" cy="605.897" r="13.267" style="fill:white;stroke:white;stroke-width:8.23px;"/>
                </g>
            </g>
        </g>
    </g>
    <g id="Eyes">
    </g>
    <g id="Broombase">
    </g>
</svg>
