<?xml version="1.0" encoding="UTF-8" standalone="no"?>
<!DOCTYPE svg PUBLIC "-//W3C//DTD SVG 1.1//EN" "http://www.w3.org/Graphics/SVG/1.1/DTD/svg11.dtd">
<svg width="100%" height="100%" viewBox="0 0 1024 1024" version="1.1" xmlns="http://www.w3.org/2000/svg" xmlns:xlink="http://www.w3.org/1999/xlink" xml:space="preserve" xmlns:serif="http://www.serif.com/" style="fill-rule:evenodd;clip-rule:evenodd;stroke-linecap:round;stroke-linejoin:round;stroke-miterlimit:1.5;">
    <g id="Cloaks">
    </g>
    <g id="Hats">
    </g>
    <g id="Ribbon">
    </g>
    <g id="Hair">
    </g>
    <g id="Nose">
    </g>
    <g id="CloakIcons">
        <g id="Uranus">
            <g transform="matrix(0.861054,0,0,-0.861054,77.7632,1175.25)">
                <circle cx="575.336" cy="617.964" r="33.035" style="fill:none;stroke:white;stroke-width:5.81px;"/>
            </g>
            <g transform="matrix(0.999993,-0.00380437,-0.00562335,-1.47812,3.63721,1552.22)">
                <path d="M573.159,632.793L573.159,671.265" style="fill:none;stroke:white;stroke-width:3.96px;"/>
            </g>
            <g transform="matrix(1.30544,0,0,-1,-175.617,1238.37)">
                <path d="M553.969,652.029L593.191,652.029" style="fill:none;stroke:white;stroke-width:4.3px;"/>
            </g>
            <path d="M519.113,614.783C534.812,614.783 547.558,602.037 547.558,586.338C547.558,570.639 534.812,557.835 519.113,557.835" style="fill:none;stroke:white;stroke-width:5px;"/>
            <g transform="matrix(-1,0,0,1,1149.16,0)">
                <path d="M519.113,614.783C534.812,614.783 547.558,602.037 547.558,586.338C547.558,570.639 534.812,557.835 519.113,557.835" style="fill:none;stroke:white;stroke-width:5px;"/>
            </g>
        </g>
    </g>
    <g id="Eyes">
    </g>
    <g id="Broombase">
    </g>
</svg>
