<?xml version="1.0" encoding="UTF-8" standalone="no"?>
<!DOCTYPE svg PUBLIC "-//W3C//DTD SVG 1.1//EN" "http://www.w3.org/Graphics/SVG/1.1/DTD/svg11.dtd">
<svg width="100%" height="100%" viewBox="0 0 2048 2048" version="1.1" xmlns="http://www.w3.org/2000/svg" xmlns:xlink="http://www.w3.org/1999/xlink" xml:space="preserve" xmlns:serif="http://www.serif.com/" style="fill-rule:evenodd;clip-rule:evenodd;stroke-linecap:round;stroke-linejoin:round;stroke-miterlimit:1.5;">
    <g id="BackPacks">
    </g>
    <g transform="matrix(1,0,0,1,353.795,51.9678)">
        <g id="BackPackAccessories">
            <g id="Cat">
                <g>
                    <path d="M145.582,402.551C62.631,381.296 22.945,266.47 93.847,174.121" style="fill:none;stroke:black;stroke-width:30px;"/>
                    <path d="M145.582,402.551C62.631,381.296 22.945,266.47 93.847,174.121" style="fill:none;stroke:white;stroke-width:10px;"/>
                </g>
                <path d="M289.017,139.322C359.628,139.588 345.586,64.253 367.577,81.828C412.611,117.818 439.054,270.433 439.054,347.428C439.054,461.762 372.18,489.174 289.577,489.418L288.458,489.42L288.458,489.418C205.855,489.174 138.981,461.762 138.981,347.428C138.981,270.433 163.299,114.986 210.458,81.828C244.23,58.083 236.63,139.124 289.017,139.322Z" style="fill:white;stroke:black;stroke-width:10px;stroke-linecap:butt;"/>
                <g transform="matrix(1,0,0,1,-1.39104,-9.36397)">
                    <path d="M202.286,436.743C220.751,493.991 240.175,494.607 260.598,436.219" style="fill:none;stroke:black;stroke-width:10px;stroke-linecap:butt;"/>
                </g>
                <g transform="matrix(-1,0,0,1,579.426,-9.36397)">
                    <path d="M202.286,436.743C220.751,493.991 240.175,494.607 260.598,436.219" style="fill:none;stroke:black;stroke-width:10px;stroke-linecap:butt;"/>
                </g>
                <g transform="matrix(0.665529,0,0,0.6682,96.6679,85.4368)">
                    <path d="M230.051,223.247C244.454,270.278 264.191,269.549 289.017,223.247C306.301,273.072 325.924,273.758 347.984,223.247" style="fill:none;stroke:black;stroke-width:15px;stroke-linecap:butt;"/>
                </g>
                <g transform="matrix(1,0,0,1,-4.70261,53.4405)">
                    <circle cx="211.055" cy="187.081" r="23.698" style="fill:white;stroke:black;stroke-width:10px;stroke-linecap:butt;"/>
                </g>
                <path d="M206.353,224.765L206.353,254.426" style="fill:none;stroke:black;stroke-width:10px;stroke-linecap:butt;"/>
                <g transform="matrix(1,0,0,1,165.565,53.4405)">
                    <circle cx="211.055" cy="187.081" r="23.698" style="fill:white;stroke:black;stroke-width:10px;stroke-linecap:butt;"/>
                </g>
                <g transform="matrix(1,0,0,1,170.267,0)">
                    <path d="M206.353,224.765L206.353,254.426" style="fill:none;stroke:black;stroke-width:10px;stroke-linecap:butt;"/>
                </g>
            </g>
        </g>
    </g>
    <g id="BodiesLarge">
    </g>
    <g id="Straps">
    </g>
    <g id="Legs">
    </g>
    <g id="Shorts">
    </g>
    <g id="Faces">
    </g>
    <g id="Arms">
    </g>
    <g id="Eyes">
    </g>
    <g id="Mouths">
    </g>
</svg>
