<?xml version="1.0" encoding="UTF-8" standalone="no"?>
<!DOCTYPE svg PUBLIC "-//W3C//DTD SVG 1.1//EN" "http://www.w3.org/Graphics/SVG/1.1/DTD/svg11.dtd">
<svg width="100%" height="100%" viewBox="0 0 2048 2048" version="1.1" xmlns="http://www.w3.org/2000/svg" xmlns:xlink="http://www.w3.org/1999/xlink" xml:space="preserve" xmlns:serif="http://www.serif.com/" style="fill-rule:evenodd;clip-rule:evenodd;stroke-linecap:round;stroke-linejoin:round;stroke-miterlimit:1.5;">
    <g id="BackPacks">
    </g>
    <g transform="matrix(1,0,0,1,189.048,-213.59)">
        <g id="BackPackAccessories">
            <g id="Skulls">
                <g>
                    <g transform="matrix(0.77541,0,0,0.614421,100.273,664.149)">
                        <path d="M306.507,1659.71C279.48,1643.54 261.372,1613.98 261.372,1580.22C261.372,1529.14 302.842,1487.67 353.922,1487.67C405.002,1487.67 446.473,1529.14 446.473,1580.22C446.473,1613.98 428.364,1643.54 401.337,1659.71L401.337,1698.77C401.337,1711.85 390.714,1722.48 377.629,1722.48L330.215,1722.48C317.13,1722.48 306.507,1711.85 306.507,1698.77L306.507,1659.71Z" style="fill:white;stroke:black;stroke-width:14.29px;"/>
                        <g transform="matrix(1,0,0,1,-7.77451,-14.2002)">
                            <ellipse cx="319.491" cy="1605.53" rx="24.584" ry="32.532" style="fill:white;stroke:black;stroke-width:14.29px;"/>
                        </g>
                        <g transform="matrix(1,0,0,1,76.6366,-14.2002)">
                            <ellipse cx="319.491" cy="1605.53" rx="24.584" ry="32.532" style="fill:white;stroke:black;stroke-width:14.29px;"/>
                        </g>
                    </g>
                    <g transform="matrix(0.618695,0.467415,-0.370371,0.490244,622.373,764.45)">
                        <path d="M306.507,1659.71C279.48,1643.54 261.372,1613.98 261.372,1580.22C261.372,1529.14 302.842,1487.67 353.922,1487.67C405.002,1487.67 446.473,1529.14 446.473,1580.22C446.473,1613.98 428.364,1643.54 401.337,1659.71L401.337,1698.77C401.337,1711.85 390.714,1722.48 377.629,1722.48L330.215,1722.48C317.13,1722.48 306.507,1711.85 306.507,1698.77L306.507,1659.71Z" style="fill:white;stroke:black;stroke-width:14.29px;"/>
                        <g transform="matrix(1,0,0,1,-7.77451,-14.2002)">
                            <ellipse cx="319.491" cy="1605.53" rx="24.584" ry="32.532" style="fill:white;stroke:black;stroke-width:14.29px;"/>
                        </g>
                        <g transform="matrix(1,0,0,1,76.6366,-14.2002)">
                            <ellipse cx="319.491" cy="1605.53" rx="24.584" ry="32.532" style="fill:white;stroke:black;stroke-width:14.29px;"/>
                        </g>
                    </g>
                    <g transform="matrix(0.74432,-0.217365,0.172237,0.589787,-284.478,696.858)">
                        <path d="M306.507,1659.71C279.48,1643.54 261.372,1613.98 261.372,1580.22C261.372,1529.14 302.842,1487.67 353.922,1487.67C405.002,1487.67 446.473,1529.14 446.473,1580.22C446.473,1613.98 428.364,1643.54 401.337,1659.71L401.337,1698.77C401.337,1711.85 390.714,1722.48 377.629,1722.48L330.215,1722.48C317.13,1722.48 306.507,1711.85 306.507,1698.77L306.507,1659.71Z" style="fill:white;stroke:black;stroke-width:14.29px;"/>
                        <g transform="matrix(1,0,0,1,-7.77451,-14.2002)">
                            <ellipse cx="319.491" cy="1605.53" rx="24.584" ry="32.532" style="fill:white;stroke:black;stroke-width:14.29px;"/>
                        </g>
                        <g transform="matrix(1,0,0,1,76.6366,-14.2002)">
                            <ellipse cx="319.491" cy="1605.53" rx="24.584" ry="32.532" style="fill:white;stroke:black;stroke-width:14.29px;"/>
                        </g>
                    </g>
                </g>
            </g>
        </g>
    </g>
    <g id="BodiesLarge">
    </g>
    <g id="Straps">
    </g>
    <g id="Legs">
    </g>
    <g id="Shorts">
    </g>
    <g id="Faces">
    </g>
    <g id="Arms">
    </g>
    <g id="Eyes">
    </g>
    <g id="Mouths">
    </g>
</svg>
