<?xml version="1.0" encoding="UTF-8" standalone="no"?>
<!DOCTYPE svg PUBLIC "-//W3C//DTD SVG 1.1//EN" "http://www.w3.org/Graphics/SVG/1.1/DTD/svg11.dtd">
<svg width="100%" height="100%" viewBox="0 0 2048 2048" version="1.1" xmlns="http://www.w3.org/2000/svg" xmlns:xlink="http://www.w3.org/1999/xlink" xml:space="preserve" xmlns:serif="http://www.serif.com/" style="fill-rule:evenodd;clip-rule:evenodd;stroke-linecap:round;stroke-linejoin:round;stroke-miterlimit:1.5;">
    <g id="BodiesLarge">
        <path id="Round" d="M872.965,632.904L872.965,471.181C872.965,387.823 940.641,320.146 1024,320.146C1107.36,320.146 1175.04,387.823 1175.04,471.181L1175.04,633.373L1175.54,633.549L1176.58,633.919L1175.04,630.917C1197.01,639.607 1217.87,649.469 1237.62,660.383C1376.02,731.642 1482.16,866.931 1496.56,1024C1500.48,1066.86 1500.45,1105.33 1497.02,1139.8C1495.26,1170.71 1490.83,1201.53 1483.71,1231.84L1483.71,1438.51C1483.71,1458.61 1460.84,1474.92 1432.66,1474.92L615.336,1474.92C587.161,1474.92 564.287,1458.61 564.287,1438.51L564.287,1231.84C559.357,1210.83 555.716,1189.59 553.356,1168.22C546.55,1126.79 545.059,1079.02 550.103,1024C565.12,860.182 679.932,720.055 827.001,651.582C841.748,644.105 857.066,637.204 872.965,630.917L871.72,633.34L872.391,633.104L872.965,632.904Z" style="fill:white;stroke:black;stroke-width:10px;"/>
    </g>
</svg>
