<?xml version="1.0" encoding="UTF-8" standalone="no"?>
<!DOCTYPE svg PUBLIC "-//W3C//DTD SVG 1.1//EN" "http://www.w3.org/Graphics/SVG/1.1/DTD/svg11.dtd">
<svg width="100%" height="100%" viewBox="0 0 2048 2048" version="1.1" xmlns="http://www.w3.org/2000/svg" xmlns:xlink="http://www.w3.org/1999/xlink" xml:space="preserve" xmlns:serif="http://www.serif.com/" style="fill-rule:evenodd;clip-rule:evenodd;stroke-linecap:round;stroke-linejoin:round;stroke-miterlimit:1.5;">
    <g id="BodiesLarge">
        <path id="Triangle" d="M872.965,566.28C667.982,576.587 489.991,608.341 451.531,661.539C399.121,734.031 519.443,965.804 670.15,1159.97L670.15,1406.04C670.15,1444.05 701.013,1474.92 739.027,1474.92L1308.97,1474.92C1346.99,1474.92 1377.85,1444.05 1377.85,1406.04L1377.85,1159.97C1528.56,965.804 1648.88,734.031 1596.47,661.539C1558.01,608.341 1380.02,576.587 1175.04,566.28L1175.04,471.181C1175.04,387.823 1107.36,320.146 1024,320.146C940.641,320.146 872.965,387.823 872.965,471.181L872.965,566.28Z" style="fill:white;stroke:black;stroke-width:10px;"/>
    </g>
</svg>
