<?xml version="1.0" encoding="UTF-8" standalone="no"?>
<!DOCTYPE svg PUBLIC "-//W3C//DTD SVG 1.1//EN" "http://www.w3.org/Graphics/SVG/1.1/DTD/svg11.dtd">
<svg width="100%" height="100%" viewBox="0 0 2048 2048" version="1.1" xmlns="http://www.w3.org/2000/svg" xmlns:xlink="http://www.w3.org/1999/xlink" xml:space="preserve" xmlns:serif="http://www.serif.com/" style="fill-rule:evenodd;clip-rule:evenodd;stroke-linecap:round;stroke-linejoin:round;stroke-miterlimit:1.5;">
    <g id="BodiesLarge">
    </g>
    <g id="Straps">
    </g>
    <g id="Legs">
        <g>
            <g>
                <g transform="matrix(1,0,0,1,21.6332,-2.42666)">
                    <path d="M873.178,1474.92L873.178,1493.37C817.325,1567.15 826.332,1684.51 888.858,1773.42L780.973,1773.42" style="fill:none;stroke:black;stroke-width:60px;"/>
                </g>
                <g transform="matrix(1,0,0,1,21.6332,-2.42666)">
                    <path d="M873.178,1476.99L873.178,1493.37C817.325,1567.15 826.332,1684.51 888.858,1773.42L780.973,1773.42" style="fill:none;stroke:white;stroke-width:40px;"/>
                </g>
            </g>
            <g>
                <g transform="matrix(-1,0,0,1,2026.37,-2.42666)">
                    <path d="M873.178,1474.92L873.178,1493.37C817.325,1567.15 826.332,1684.51 888.858,1773.42L780.973,1773.42" style="fill:none;stroke:black;stroke-width:60px;"/>
                </g>
                <g transform="matrix(-1,0,0,1,2026.37,-2.42666)">
                    <path d="M873.178,1476.99L873.178,1493.37C817.325,1567.15 826.332,1684.51 888.858,1773.42L780.973,1773.42" style="fill:none;stroke:white;stroke-width:40px;"/>
                </g>
            </g>
        </g>
    </g>
</svg>
