<?xml version="1.0" encoding="UTF-8" standalone="no"?>
<!DOCTYPE svg PUBLIC "-//W3C//DTD SVG 1.1//EN" "http://www.w3.org/Graphics/SVG/1.1/DTD/svg11.dtd">
<svg width="100%" height="100%" viewBox="0 0 2048 2048" version="1.1" xmlns="http://www.w3.org/2000/svg" xmlns:xlink="http://www.w3.org/1999/xlink" xml:space="preserve" xmlns:serif="http://www.serif.com/" style="fill-rule:evenodd;clip-rule:evenodd;stroke-linecap:round;stroke-linejoin:round;stroke-miterlimit:1.5;">
    <g id="BodiesLarge">
    </g>
    <g id="Straps">
    </g>
    <g id="Legs">
    </g>
    <g id="Shorts">
    </g>
    <g id="Faces">
    </g>
    <g id="Arms">
    </g>
    <g id="Eyes">
    </g>
    <g id="Mouths">
        <g id="TongueDown">
            <g transform="matrix(1,0,0,0.655834,-16.3071,218.926)">
                <path d="M1061.68,605.866L1018.94,605.866L1018.94,668.246C1018.94,674.143 1023.73,678.931 1029.62,678.931L1050.99,678.931C1056.89,678.931 1061.68,674.143 1061.68,668.246L1061.68,605.866Z" style="fill:white;stroke:black;stroke-width:11.83px;"/>
            </g>
            <g transform="matrix(1,0,0,1,-16.3601,0)">
                <path d="M1040.36,616.274L1040.36,642.266" style="fill:none;stroke:black;stroke-width:10px;"/>
            </g>
            <g id="Neutral" transform="matrix(1,0,0,-1,0,1195)">
                <path d="M989.669,578.73L1058.33,578.73" style="fill:none;stroke:black;stroke-width:10px;"/>
            </g>
            <g id="Overbite" transform="matrix(1.34201,0,0,-1.34201,-350.221,1392.94)">
                <path d="M989.669,578.73L1058.33,578.73" style="fill:none;stroke:black;stroke-width:7.45px;"/>
            </g>
        </g>
    </g>
</svg>
