<?xml version="1.0" encoding="UTF-8" standalone="no"?>
<!DOCTYPE svg PUBLIC "-//W3C//DTD SVG 1.1//EN" "http://www.w3.org/Graphics/SVG/1.1/DTD/svg11.dtd">
<svg width="100%" height="100%" viewBox="0 0 2048 2048" version="1.1" xmlns="http://www.w3.org/2000/svg" xmlns:xlink="http://www.w3.org/1999/xlink" xml:space="preserve" xmlns:serif="http://www.serif.com/" style="fill-rule:evenodd;clip-rule:evenodd;stroke-linecap:round;stroke-linejoin:round;stroke-miterlimit:1.5;">
    <g id="BodiesLarge">
    </g>
    <g id="Straps">
    </g>
    <g id="Legs">
    </g>
    <g id="Shorts">
    </g>
    <g id="Faces">
    </g>
    <g id="Arms">
    </g>
    <g id="Eyes">
    </g>
    <g id="Mouths">
        <g id="Walrus">
            <path id="Walrus1" serif:id="Walrus" d="M1024,571.212C1014.02,579.705 988.833,586.477 978.702,602.774C963.758,626.814 964.57,665.708 957.69,689.921C937.728,654.037 938.585,616.187 965.533,588.859C980.764,573.414 1001.49,568.16 1024,571.212ZM1024,571.212C1033.98,579.705 1059.17,586.477 1069.3,602.774C1084.24,626.814 1083.43,665.708 1090.31,689.921C1110.27,654.037 1109.41,616.187 1082.47,588.859C1067.24,573.414 1046.51,568.16 1024,571.212Z" style="stroke:black;stroke-width:10px;"/>
            <g transform="matrix(1,0,0,1,-0.0819927,-19.45)">
                <path d="M993.463,621.78L1054.7,621.78" style="fill:none;stroke:black;stroke-width:10px;"/>
            </g>
        </g>
    </g>
</svg>
