<?xml version="1.0" encoding="UTF-8" standalone="no"?>
<!DOCTYPE svg PUBLIC "-//W3C//DTD SVG 1.1//EN" "http://www.w3.org/Graphics/SVG/1.1/DTD/svg11.dtd">
<svg width="100%" height="100%" viewBox="0 0 1024 1024" version="1.1" xmlns="http://www.w3.org/2000/svg" xmlns:xlink="http://www.w3.org/1999/xlink" xml:space="preserve" xmlns:serif="http://www.serif.com/" style="fill-rule:evenodd;clip-rule:evenodd;stroke-linejoin:round;stroke-miterlimit:2;">
    <g transform="matrix(1,0,0,1,-0.52662,0)">
        <g id="HeadAccessories">
            <g id="Cheeks_invert_triangle">
                <g transform="matrix(0.5,0,0,0.903743,17.0758,432.688)">
                    <path d="M628.12,166.136C603.098,149.13 420.902,149.13 395.88,166.136C370.857,183.143 477.986,268.177 477.986,268.177C496.759,286.95 527.241,286.95 546.014,268.177C546.014,268.177 653.143,183.143 628.12,166.136Z" style="fill:rgb(196,100,85);"/>
                </g>
                <g transform="matrix(0.5,0,0,0.903743,495.977,432.688)">
                    <path d="M628.12,166.136C603.098,149.13 420.902,149.13 395.88,166.136C370.857,183.143 477.986,268.177 477.986,268.177C496.759,286.95 527.241,286.95 546.014,268.177C546.014,268.177 653.143,183.143 628.12,166.136Z" style="fill:rgb(196,100,85);"/>
                </g>
            </g>
        </g>
    </g>
    <g id="Spacers">
    </g>
</svg>
