<?xml version="1.0" encoding="UTF-8" standalone="no"?>
<!DOCTYPE svg PUBLIC "-//W3C//DTD SVG 1.1//EN" "http://www.w3.org/Graphics/SVG/1.1/DTD/svg11.dtd">
<svg width="100%" height="100%" viewBox="0 0 1024 1024" version="1.1" xmlns="http://www.w3.org/2000/svg" xmlns:xlink="http://www.w3.org/1999/xlink" xml:space="preserve" xmlns:serif="http://www.serif.com/" style="fill-rule:evenodd;clip-rule:evenodd;stroke-linejoin:round;stroke-miterlimit:2;">
    <g transform="matrix(1,0,0,1,-6.30236,0)">
        <g id="Eyes">
            <g id="Tears">
                <g transform="matrix(1,0,0,1,25.6114,-3.74945)">
                    <g transform="matrix(-0.887083,0.461609,0.461609,0.887083,803.234,-89.0925)">
                        <circle cx="302.869" cy="387.727" r="74.237"/>
                    </g>
                    <g transform="matrix(0.887083,-0.461609,0.461609,0.887083,-105.139,383.595)">
                        <path d="M775.159,337.378C804.249,363.845 833.731,489.609 803.258,499.88C798.728,501.407 771.504,458.29 721.131,461.964L775.159,337.378Z"/>
                    </g>
                </g>
                <g transform="matrix(1,0,0,1,17.4453,-10.2624)">
                    <g transform="matrix(0.887083,0.461609,-0.461609,0.887083,190.314,-84.4543)">
                        <circle cx="302.869" cy="387.727" r="74.237"/>
                    </g>
                    <g transform="matrix(-0.887083,-0.461609,-0.461609,0.887083,1098.69,388.233)">
                        <path d="M775.159,337.378C804.249,363.845 833.731,489.609 803.258,499.88C798.728,501.407 771.504,458.29 721.131,461.964L775.159,337.378Z"/>
                    </g>
                </g>
            </g>
        </g>
    </g>
    <g id="Eyebrows">
    </g>
    <g id="Nose">
    </g>
    <g id="HeadAccessories">
    </g>
    <g id="Spacers">
    </g>
</svg>
