<?xml version="1.0" encoding="UTF-8" standalone="no"?>
<svg
   width="100%"
   height="100%"
   viewBox="0 0 1024 1024"
   version="1.1"
   xml:space="preserve"
   style="fill-rule:evenodd;clip-rule:evenodd;stroke-linejoin:round;stroke-miterlimit:2;"
   id="svg407"
   sodipodi:docname="Eyes-Soul-pupil.svg"
   inkscape:version="1.1 (c68e22c387, 2021-05-23)"
   xmlns:inkscape="http://www.inkscape.org/namespaces/inkscape"
   xmlns:sodipodi="http://sodipodi.sourceforge.net/DTD/sodipodi-0.dtd"
   xmlns="http://www.w3.org/2000/svg"
   xmlns:svg="http://www.w3.org/2000/svg"
   xmlns:serif="http://www.serif.com/"><defs
   id="defs411">
        
    </defs><sodipodi:namedview
   id="namedview409"
   pagecolor="#505050"
   bordercolor="#eeeeee"
   borderopacity="1"
   inkscape:pageshadow="0"
   inkscape:pageopacity="0"
   inkscape:pagecheckerboard="0"
   showgrid="false"
   inkscape:zoom="0.8125"
   inkscape:cx="511.38462"
   inkscape:cy="512.61538"
   inkscape:window-width="1920"
   inkscape:window-height="1017"
   inkscape:window-x="-8"
   inkscape:window-y="-8"
   inkscape:window-maximized="1"
   inkscape:current-layer="Yellow-pupil" />
    <g
   id="Mouth">
    </g>
    <g
   id="Yellow-pupil">
            
            
            
            
            
            <g
   transform="translate(422.758,-60.2517)"
   id="g395">
                
            </g>
            <g
   id="g662"><g
     id="yellow">
                <g
   id="SoulStarer-red">
                    <g
   transform="translate(-54.1563,-60.2517)"
   id="g302">
                        <circle
   cx="327.06299"
   cy="476.86899"
   r="95.383003"
   style="fill:#b32323"
   id="circle300" />
                    </g>
                    <g
   transform="matrix(0.440392,0,0,0.440392,128.871,206.785)"
   id="g306">
                        <circle
   cx="327.06299"
   cy="476.86899"
   r="95.383003"
   style="fill:#0e0e0e"
   id="circle304" />
                    </g>
                    <g
   transform="translate(422.758,-60.2517)"
   id="g310">
                        <circle
   cx="327.06299"
   cy="476.86899"
   r="95.383003"
   style="fill:#b32323"
   id="circle308" />
                    </g>
                    <g
   transform="matrix(0.440392,0,0,0.440392,605.785,206.785)"
   id="g314">
                        <circle
   cx="327.06299"
   cy="476.86899"
   r="95.383003"
   style="fill:#0e0e0e"
   id="circle312" />
                    </g>
                </g>
                <g
   transform="translate(-54.1563,-60.2517)"
   id="g319">
                    <circle
   cx="327.06299"
   cy="476.86899"
   r="95.383003"
   style="fill:#ffb200"
   id="circle317" />
                </g>
                <g
   transform="matrix(0.440392,0,0,0.440392,128.871,206.785)"
   id="g323">
                    <circle
   cx="327.06299"
   cy="476.86899"
   r="95.383003"
   style="fill:#0e0e0e"
   id="circle321" />
                </g>
                <g
   transform="translate(422.758,-60.2517)"
   id="g327">
                    <circle
   cx="327.06299"
   cy="476.86899"
   r="95.383003"
   style="fill:#ffb200"
   id="circle325" />
                </g>
                <g
   transform="matrix(0.440392,0,0,0.440392,605.785,206.785)"
   id="g331">
                    <circle
   cx="327.06299"
   cy="476.86899"
   r="95.383003"
   style="fill:#0e0e0e"
   id="circle329" />
                </g>
            </g><g
     id="yellow-outline">
                <g
   id="SoulStarer-red1"
   serif:id="SoulStarer-red">
                    <g
   transform="translate(-54.1563,-60.2517)"
   id="g336">
                        <circle
   cx="327.06299"
   cy="476.86899"
   r="95.383003"
   style="fill:#b32323"
   id="circle334" />
                    </g>
                    <g
   transform="matrix(0.440392,0,0,0.440392,128.871,206.785)"
   id="g340">
                        <circle
   cx="327.06299"
   cy="476.86899"
   r="95.383003"
   style="fill:#0e0e0e"
   id="circle338" />
                    </g>
                    <g
   transform="translate(422.758,-60.2517)"
   id="g344">
                        <circle
   cx="327.06299"
   cy="476.86899"
   r="95.383003"
   style="fill:#b32323"
   id="circle342" />
                    </g>
                    <g
   transform="matrix(0.440392,0,0,0.440392,605.785,206.785)"
   id="g348">
                        <circle
   cx="327.06299"
   cy="476.86899"
   r="95.383003"
   style="fill:#0e0e0e"
   id="circle346" />
                    </g>
                </g>
                <g
   transform="translate(-54.1563,-60.2517)"
   id="g353">
                    <circle
   cx="327.06299"
   cy="476.86899"
   r="95.383003"
   style="fill:#ffb200"
   id="circle351" />
                </g>
                <g
   transform="matrix(0.440392,0,0,0.440392,128.871,206.785)"
   id="g357">
                    <circle
   cx="327.06299"
   cy="476.86899"
   r="95.383003"
   style="fill:#0e0e0e"
   id="circle355" />
                </g>
                <g
   transform="translate(422.758,-60.2517)"
   id="g361">
                    <circle
   cx="327.06299"
   cy="476.86899"
   r="95.383003"
   style="fill:#ffb200"
   id="circle359" />
                </g>
                <g
   transform="matrix(0.440392,0,0,0.440392,605.785,206.785)"
   id="g365">
                    <circle
   cx="327.06299"
   cy="476.86899"
   r="95.383003"
   style="fill:#0e0e0e"
   id="circle363" />
                </g>
            </g><g
     id="SoulStarer-red2"
     serif:id="SoulStarer-red">
                <g
   transform="translate(-54.1563,-60.2517)"
   id="g370">
                    <circle
   cx="327.06299"
   cy="476.86899"
   r="95.383003"
   style="fill:#b32323"
   id="circle368" />
                </g>
                <g
   transform="matrix(0.440392,0,0,0.440392,128.871,206.785)"
   id="g374">
                    <circle
   cx="327.06299"
   cy="476.86899"
   r="95.383003"
   style="fill:#0e0e0e"
   id="circle372" />
                </g>
                <g
   transform="translate(422.758,-60.2517)"
   id="g378">
                    <circle
   cx="327.06299"
   cy="476.86899"
   r="95.383003"
   style="fill:#b32323"
   id="circle376" />
                </g>
                <g
   transform="matrix(0.440392,0,0,0.440392,605.785,206.785)"
   id="g382">
                    <circle
   cx="327.06299"
   cy="476.86899"
   r="95.383003"
   style="fill:#0e0e0e"
   id="circle380" />
                </g>
            </g><g
     transform="translate(-54.1563,-60.2517)"
     id="g387"
     style="fill:#eebe36">
                <circle
   cx="327.06299"
   cy="476.86899"
   r="95.383003"
   style="fill:#eebe36"
   id="circle385" />
            </g><g
     transform="matrix(0.440392,0,0,0.440392,128.871,206.785)"
     id="g391">
                <path
   d="m 327.063,309.759 c 52.643,0 95.383,114.467 95.383,167.11 0,52.643 -42.74,178.994 -95.383,178.994 -52.643,0 -95.383,-126.351 -95.383,-178.994 0,-52.643 42.74,-167.11 95.383,-167.11 z"
   style="fill:#0e0e0e"
   id="path389" />
            </g><circle
     cx="327.06299"
     cy="476.86899"
     style="fill-rule:evenodd;clip-rule:evenodd;stroke-linejoin:round;stroke-miterlimit:2;fill:#eebe36"
     id="circle393"
     r="95.383003"
     transform="translate(422.758,-60.2517)" /><g
     transform="matrix(0.440392,0,0,0.440392,605.785,206.785)"
     id="g399">
                <path
   d="m 327.063,309.759 c 52.643,0 95.383,114.467 95.383,167.11 0,52.643 -42.74,178.994 -95.383,178.994 -52.643,0 -95.383,-126.351 -95.383,-178.994 0,-52.643 42.74,-167.11 95.383,-167.11 z"
   style="fill:#0e0e0e"
   id="path397" />
            </g></g>
        </g>
    <g
   id="Eyebrows">
    </g>
    <g
   id="Nose">
    </g>
    <g
   id="HeadAccessories">
    </g>
    <g
   id="Spacers">
    </g>
</svg>
