<?xml version="1.0" encoding="UTF-8" standalone="no"?>
<!DOCTYPE svg PUBLIC "-//W3C//DTD SVG 1.1//EN" "http://www.w3.org/Graphics/SVG/1.1/DTD/svg11.dtd">
<svg width="100%" height="100%" viewBox="0 0 1024 1024" version="1.1" xmlns="http://www.w3.org/2000/svg" xmlns:xlink="http://www.w3.org/1999/xlink" xml:space="preserve" xmlns:serif="http://www.serif.com/" style="fill-rule:evenodd;clip-rule:evenodd;stroke-linejoin:round;stroke-miterlimit:2;">
    <g transform="matrix(1,0,0,1,19.2384,-3)">
        <g id="Eyes">
            <g id="Kind">
                <g transform="matrix(0.977757,-0.209739,0.209739,0.977757,-55.7366,52.4319)">
                    <path d="M270.497,305.606C337.848,305.606 392.528,331.741 392.528,363.931C392.528,396.121 341.569,354.628 274.218,354.628C206.867,354.628 148.466,396.121 148.466,363.931C148.466,331.741 203.146,305.606 270.497,305.606Z"/>
                </g>
                <g transform="matrix(-0.977757,-0.209739,-0.209739,0.977757,1041.26,52.4319)">
                    <path d="M270.497,305.606C337.848,305.606 392.528,331.741 392.528,363.931C392.528,396.121 341.569,354.628 274.218,354.628C206.867,354.628 148.466,396.121 148.466,363.931C148.466,331.741 203.146,305.606 270.497,305.606Z"/>
                </g>
            </g>
        </g>
    </g>
    <g id="Eyebrows">
    </g>
    <g id="Nose">
    </g>
    <g id="HeadAccessories">
    </g>
    <g id="Spacers">
    </g>
</svg>
