<?xml version="1.0" encoding="UTF-8" standalone="no"?>
<!DOCTYPE svg PUBLIC "-//W3C//DTD SVG 1.1//EN" "http://www.w3.org/Graphics/SVG/1.1/DTD/svg11.dtd">
<svg width="100%" height="100%" viewBox="0 0 1024 1024" version="1.1" xmlns="http://www.w3.org/2000/svg" xmlns:xlink="http://www.w3.org/1999/xlink" xml:space="preserve" xmlns:serif="http://www.serif.com/" style="fill-rule:evenodd;clip-rule:evenodd;stroke-linecap:round;stroke-linejoin:round;stroke-miterlimit:1.5;">
    <g id="Mouth">
        <g>
            <g transform="matrix(1,0,0,1,218.532,-47.2826)">
                <g transform="matrix(0.452769,0,0,0.614008,134.18,441.586)">
                    <path d="M172.71,622.238L208.53,693.878L136.89,693.878L172.71,622.238Z"/>
                </g>
                <g transform="matrix(0.452769,0,0,0.614008,166.616,441.586)">
                    <path d="M172.71,622.238L208.53,693.878L136.89,693.878L172.71,622.238Z"/>
                </g>
                <g transform="matrix(0.452769,0,0,0.614008,199.052,441.586)">
                    <path d="M172.71,622.238L208.53,693.878L136.89,693.878L172.71,622.238Z"/>
                </g>
                <g transform="matrix(0.452769,0,0,0.614008,231.488,441.586)">
                    <path d="M172.71,622.238L208.53,693.878L136.89,693.878L172.71,622.238Z"/>
                </g>
                <g transform="matrix(0.452769,0,0,0.614008,263.924,441.586)">
                    <path d="M172.71,622.238L208.53,693.878L136.89,693.878L172.71,622.238Z"/>
                </g>
                <g transform="matrix(0.452769,0,0,0.614008,296.361,441.586)">
                    <path d="M172.71,622.238L208.53,693.878L136.89,693.878L172.71,622.238Z"/>
                </g>
            </g>
            <g transform="matrix(1,0,0,1,0,-30.3333)">
                <path d="M609.308,850.684L414.692,850.684L414.692,865.85C414.692,874.221 421.488,881.017 429.858,881.017L594.142,881.017C602.512,881.017 609.308,874.221 609.308,865.85L609.308,850.684Z"/>
            </g>
            <path d="M414.692,817.643C479.735,822.877 544.61,822.849 609.308,817.643" style="fill:none;stroke:black;stroke-width:15px;"/>
        </g>
    </g>
    <g id="Eyes">
    </g>
    <g id="Eyebrows">
    </g>
    <g id="Nose">
    </g>
    <g id="HeadAccessories">
    </g>
    <g id="Spacers">
    </g>
</svg>
