<?xml version="1.0" encoding="UTF-8" standalone="no"?>
<!DOCTYPE svg PUBLIC "-//W3C//DTD SVG 1.1//EN" "http://www.w3.org/Graphics/SVG/1.1/DTD/svg11.dtd">
<svg width="100%" height="100%" viewBox="0 0 1024 1024" version="1.1" xmlns="http://www.w3.org/2000/svg" xmlns:xlink="http://www.w3.org/1999/xlink" xml:space="preserve" xmlns:serif="http://www.serif.com/" style="fill-rule:evenodd;clip-rule:evenodd;stroke-linecap:round;stroke-linejoin:round;stroke-miterlimit:1.5;">
    <g id="Mouth">
        <g id="CoinTongue">
            <g transform="matrix(1,0,0,1,2.37138,-54.9981)">
                <g transform="matrix(1,0,0,1,-3.12962,551.57)">
                    <path d="M581.68,287.306C581.68,268.941 566.77,254.031 548.405,254.031L481.854,254.031C463.489,254.031 448.579,268.941 448.579,287.306L448.579,384.646C448.579,403.011 463.489,417.922 481.854,417.922L548.405,417.922C566.77,417.922 581.68,403.011 581.68,384.646L581.68,287.306Z" style="fill:rgb(190,63,45);"/>
                </g>
                <g transform="matrix(1,0,0,1,0,12.9896)">
                    <path d="M512,805.601L512,907.07" style="fill:none;stroke:rgb(203,124,112);stroke-width:6.5px;"/>
                </g>
            </g>
            <g transform="matrix(1.59159,0,0,1.46283,9.38524,184.172)">
                <g transform="matrix(1,0,0,1,-4.31643,74.0156)">
                    <path d="M352.64,357.25C348.366,374.393 331.003,384.826 313.858,380.551C296.72,376.277 286.287,358.913 290.563,341.771C294.835,324.626 312.198,314.192 329.338,318.466C346.482,322.74 356.914,340.106 352.64,357.25Z" style="fill:rgb(247,147,26);fill-rule:nonzero;"/>
                </g>
                <g transform="matrix(1,0,0,1,-4.31643,74.0156)">
                    <path d="M335.71,344.95C336.347,340.692 333.105,338.403 328.672,336.876L330.11,331.108L326.599,330.233L325.199,335.849C324.276,335.619 323.328,335.402 322.386,335.187L323.796,329.534L320.287,328.659L318.848,334.425C318.084,334.251 317.334,334.079 316.606,333.898L316.61,333.88L311.768,332.671L310.834,336.421C310.834,336.421 313.439,337.018 313.384,337.055C314.806,337.41 315.063,338.351 315.02,339.097L313.382,345.668C313.48,345.693 313.607,345.729 313.747,345.785C313.63,345.756 313.505,345.724 313.376,345.693L311.08,354.898C310.906,355.33 310.465,355.978 309.471,355.732C309.506,355.783 306.919,355.095 306.919,355.095L305.176,359.114L309.745,360.253C310.595,360.466 311.428,360.689 312.248,360.899L310.795,366.733L314.302,367.608L315.741,361.836C316.699,362.096 317.629,362.336 318.539,362.562L317.105,368.307L320.616,369.182L322.069,363.359C328.056,364.492 332.558,364.035 334.453,358.62C335.98,354.26 334.377,351.745 331.227,350.105C333.521,349.576 335.249,348.067 335.71,344.95ZM327.688,356.199C326.603,360.559 319.262,358.202 316.882,357.611L318.81,349.882C321.19,350.476 328.822,351.652 327.688,356.199ZM328.774,344.887C327.784,348.853 321.674,346.838 319.692,346.344L321.44,339.334C323.422,339.828 329.805,340.75 328.774,344.887Z" style="fill:white;fill-rule:nonzero;"/>
                </g>
            </g>
            <g transform="matrix(1,0,0,0.457317,0,421.474)">
                <path d="M623.573,720.711C623.573,710.419 619.752,702.064 615.045,702.064L413.698,702.064C408.991,702.064 405.17,710.419 405.17,720.711L405.17,758.004C405.17,768.295 408.991,776.65 413.698,776.65L615.045,776.65C619.752,776.65 623.573,768.295 623.573,758.004L623.573,720.711Z"/>
            </g>
        </g>
    </g>
    <g id="Eyes">
    </g>
    <g id="Eyebrows">
    </g>
    <g id="Nose">
    </g>
    <g id="HeadAccessories">
    </g>
    <g id="Spacers">
    </g>
</svg>
